{"title":"The.Last.Song.2010.DvDRiP.XViD.AC3.Optional MultiSub.Zen_Bud","uid":5793082,"size":1495681072,"categoryP":"video","categoryS":"movies","magnet":"?xt=urn:btih:5fa0e6550350c0e1e71fff08a849986a29479e24&amp;dn=The.Last.Song.2010.DvDRiP.XViD.AC3.Optional+MultiSub.Zen_Bud&amp;tr=udp%3A%2F%2Ftracker.openbittorrent.com%3A80&amp;tr=udp%3A%2F%2Fopen.demonii.com%3A1337&amp;tr=udp%3A%2F%2Ftracker.coppersurfer.tk%3A6969&amp;tr=udp%3A%2F%2Fexodus.desync.com%3A6969","seeders":0,"leechers":0,"uploader":"Zen_Bud","files":-1,"time":1282926843,"description":"\nComplete name                    : The.Last.Song.avi\nFormat                           : AVI\nFile size                        : 1.37 GiB\nDuration                         : 1h 43mn\nOverall bit rate                 : 1 900 Kbps\n\nVideo\n\nFormat                           : MPEG-4 Visual\nCodec ID/Hint                    : XviD\nDuration                         : 1h 43mn\nBit rate                         : 1 505 Kbps\nWidth                            : 720 pixels\nHeight                           : 436 pixels\nDisplay aspect ratio             : 2.35:1\nStream size                      : 1.08 GiB (79%)\nWriting library                  : XviD 1.1.2 (UTC 2006-11-01)\n\nAudio\n\nFormat                           : AC-3\nDuration                         : 1h 43mn\nBit rate                         : 384 Kbps\nChannel(s)                       : 6 channels\nChannel positions                : Front: L C R, Side: L R, LFE\nSampling rate                    : 48.0 KHz\nBit depth                        : 16 bits\nStream size                      : 283 MiB (20%)\n\n\nText #1\nLanguage                         : English\n\nText #2\nLanguage                         : Swedish\n\nText #3\nLanguage                         : Norwegian\n\nText #4\nLanguage                         : Danish\n\nText #5\nLanguage                         : Finnish\n\nText #6\nLanguage                         : Icelandic\n","torrent":{"xt":"urn:btih:5fa0e6550350c0e1e71fff08a849986a29479e24","amp;dn":"The.Last.Song.2010.DvDRiP.XViD.AC3.Optional+MultiSub.Zen_Bud","amp;tr":["udp%3A%2F%2Ftracker.openbittorrent.com%3A80","udp%3A%2F%2Fopen.demonii.com%3A1337","udp%3A%2F%2Ftracker.coppersurfer.tk%3A6969","udp%3A%2F%2Fexodus.desync.com%3A6969"],"infoHash":"5fa0e6550350c0e1e71fff08a849986a29479e24","infoHashBuffer":{"type":"Buffer","data":[95,160,230,85,3,80,192,225,231,31,255,8,168,73,152,106,41,71,158,36]},"announce":[],"urlList":[]}}